<svg width="24" height="21" viewBox="0 0 24 21" fill="none" xmlns="http://www.w3.org/2000/svg">
    <path d="M12.1225 6.36952C11.9708 6.36952 11.79 6.33452 11.58 6.26452C11.44 6.22952 11.2241 6.14785 10.9325 6.01952C10.5125 5.85618 10.1916 5.74535 9.96997 5.68702C9.58497 5.57035 9.23497 5.51785 8.91997 5.52952C8.1033 5.54118 7.33622 5.76577 6.61872 6.20327C5.90122 6.64077 5.33247 7.22702 4.91247 7.96202C4.3758 8.89535 4.10163 10.0037 4.08997 11.287C4.08997 12.4187 4.29413 13.5912 4.70247 14.8045C5.06413 15.9129 5.54247 16.8929 6.13747 17.7445C6.49913 18.2579 6.7908 18.6487 7.01247 18.917C7.36247 19.3254 7.7008 19.6345 8.02747 19.8445C8.41247 20.0895 8.8033 20.2062 9.19997 20.1945C9.45663 20.1829 9.70747 20.142 9.95247 20.072C10.1041 20.0254 10.32 19.9437 10.6 19.827C10.9266 19.687 11.1833 19.5879 11.37 19.5295C11.6966 19.4479 12.032 19.407 12.3762 19.407C12.7204 19.407 13.0441 19.4479 13.3475 19.5295C13.5225 19.5762 13.7616 19.6666 14.065 19.8008C14.3683 19.9349 14.6016 20.0254 14.765 20.072C15.0333 20.142 15.3075 20.177 15.5875 20.177C15.9958 20.1654 16.3866 20.0429 16.76 19.8095C17.075 19.6112 17.3958 19.3195 17.7225 18.9345C17.9325 18.6779 18.2125 18.2929 18.5625 17.7795C18.9475 17.2079 19.2858 16.5895 19.5775 15.9245C19.7291 15.5745 19.84 15.277 19.91 15.032C19.735 14.9737 19.5075 14.8454 19.2275 14.647C18.7141 14.3087 18.3 13.9004 17.985 13.422C17.5416 12.7454 17.3141 11.9695 17.3025 11.0945C17.2908 10.3712 17.46 9.69452 17.81 9.06452C18.0666 8.60952 18.3991 8.20118 18.8075 7.83952C19.0291 7.65285 19.2275 7.51285 19.4025 7.41952C18.9008 6.68452 18.2416 6.15368 17.425 5.82702C16.9466 5.64035 16.4216 5.52952 15.85 5.49452C15.4066 5.45952 14.94 5.50618 14.45 5.63452C14.1583 5.70452 13.7558 5.84452 13.2425 6.05452C12.9508 6.15952 12.7466 6.23535 12.63 6.28202C12.42 6.34035 12.2508 6.36952 12.1225 6.36952ZM14.8525 3.90202C15.2141 3.47035 15.4825 2.99202 15.6575 2.46702C15.8558 1.89535 15.9258 1.34118 15.8675 0.804518C15.3775 0.816185 14.867 0.959101 14.3362 1.23327C13.8054 1.50743 13.365 1.84868 13.015 2.25702C12.665 2.66535 12.3908 3.12035 12.1925 3.62202C11.9825 4.19368 11.9125 4.74202 11.9825 5.26702C12.4958 5.31368 13.0208 5.19702 13.5575 4.91702C14.0591 4.67202 14.4908 4.33368 14.8525 3.90202Z" fill="#374151"/>
</svg>
