<svg width="18" height="16" viewBox="0 0 18 16" fill="none" xmlns="http://www.w3.org/2000/svg">
    <path d="M9.31996 14.6665C8.41275 14.6665 7.54556 14.4932 6.7184 14.1465C5.92681 13.8087 5.22195 13.3309 4.6038 12.7132C3.98565 12.0954 3.50758 11.3909 3.1696 10.5998C2.82273 9.77317 2.64929 8.9065 2.64929 7.99984C2.64929 7.09317 2.82273 6.2265 3.1696 5.39984C3.50758 4.60873 3.98565 3.90428 4.6038 3.2865C5.22195 2.66873 5.92681 2.19095 6.7184 1.85317C7.54556 1.5065 8.41275 1.33317 9.31996 1.33317C10.2272 1.33317 11.0944 1.5065 11.9215 1.85317C12.7131 2.19095 13.418 2.66873 14.0361 3.2865C14.6543 3.90428 15.1323 4.60873 15.4703 5.39984C15.8172 6.2265 15.9906 7.09317 15.9906 7.99984C15.9906 8.9065 15.8172 9.77317 15.4703 10.5998C15.1323 11.3909 14.6543 12.0954 14.0361 12.7132C13.418 13.3309 12.7131 13.8087 11.9215 14.1465C11.0944 14.4932 10.2272 14.6665 9.31996 14.6665ZM9.31996 13.3332C10.2894 13.3332 11.1877 13.0887 12.0149 12.5998C12.8154 12.1287 13.4513 11.4932 13.9227 10.6932C14.4119 9.8665 14.6565 8.96873 14.6565 7.99984C14.6565 7.03095 14.4119 6.13317 13.9227 5.3065C13.4513 4.5065 12.8154 3.87095 12.0149 3.39984C11.1877 2.91095 10.2894 2.6665 9.31996 2.6665C8.35049 2.6665 7.45217 2.91095 6.62501 3.39984C5.82453 3.87095 5.18859 4.5065 4.7172 5.3065C4.22802 6.13317 3.98343 7.03095 3.98343 7.99984C3.98343 8.96873 4.22802 9.8665 4.7172 10.6932C5.18859 11.4932 5.82453 12.1287 6.62501 12.5998C7.45217 13.0887 8.35049 13.3332 9.31996 13.3332Z" fill="#4B5563"/>
</svg>
