<svg width="34" height="32" viewBox="0 0 34 32" fill="none" xmlns="http://www.w3.org/2000/svg">
    <path d="M6.86663 19.3602L11.4 14.8268L15.1866 18.5868L19.4 14.4002L17 12.0002H23.6666V18.6668L21.2666 16.2668L15.1866 22.3735L11.4 18.5868L8.11996 21.8935C9.07996 23.3691 10.3333 24.5246 11.88 25.3602C13.4622 26.2313 15.1688 26.6668 17 26.6668C18.9377 26.6668 20.7333 26.1779 22.3866 25.2002C23.9866 24.2579 25.2577 22.9868 26.2 21.3868C27.1777 19.7335 27.6666 17.9379 27.6666 16.0002C27.6666 14.0624 27.1777 12.2668 26.2 10.6135C25.2577 9.0135 23.9866 7.74238 22.3866 6.80016C20.7333 5.82238 18.9377 5.3335 17 5.3335C15.0622 5.3335 13.2666 5.82238 11.6133 6.80016C10.0133 7.74238 8.74218 9.0135 7.79996 10.6135C6.82218 12.2668 6.33329 14.0624 6.33329 16.0002C6.33329 17.1557 6.51107 18.2757 6.86663 19.3602ZM4.81329 21.4402V21.4135C4.04885 19.7068 3.66663 17.9024 3.66663 16.0002C3.66663 14.1868 4.01329 12.4535 4.70663 10.8002C5.38218 9.21794 6.33774 7.80905 7.57329 6.5735C8.80885 5.33794 10.2177 4.38239 11.8 3.70683C13.4533 3.0135 15.1866 2.66683 17 2.66683C18.8133 2.66683 20.5466 3.0135 22.2 3.70683C23.7822 4.38239 25.1911 5.33794 26.4266 6.5735C27.6622 7.80905 28.6177 9.21794 29.2933 10.8002C29.9866 12.4535 30.3333 14.1868 30.3333 16.0002C30.3333 17.8135 29.9866 19.5468 29.2933 21.2002C28.6177 22.7824 27.6622 24.1913 26.4266 25.4268C25.1911 26.6624 23.7822 27.6179 22.2 28.2935C20.5466 28.9868 18.8222 29.3335 17.0266 29.3335C15.2311 29.3335 13.5244 28.9957 11.9066 28.3202C10.3244 27.6624 8.91996 26.7379 7.69329 25.5468C6.46663 24.3557 5.50663 22.9868 4.81329 21.4402Z" fill="#1A3C2B"/>
</svg>
