<svg width="34" height="32" viewBox="0 0 34 32" fill="none" xmlns="http://www.w3.org/2000/svg">
    <path d="M17 5.27983L10.4133 11.8932C9.20444 13.0843 8.38667 14.4887 7.96 16.1065C7.55111 17.6887 7.55111 19.2709 7.96 20.8532C8.38667 22.4709 9.2 23.8798 10.4 25.0798C11.6 26.2798 13.0089 27.0932 14.6267 27.5198C16.2089 27.9287 17.7911 27.9287 19.3733 27.5198C20.9911 27.0932 22.4 26.2798 23.6 25.0798C24.8 23.8798 25.6133 22.4709 26.04 20.8532C26.4489 19.2709 26.4489 17.6887 26.04 16.1065C25.6133 14.4887 24.7956 13.0843 23.5867 11.8932L17 5.27983ZM17 1.51983L25.48 9.99983C27.0267 11.5287 28.0667 13.3421 28.6 15.4398C29.1333 17.4665 29.1333 19.4932 28.6 21.5198C28.0667 23.6176 27.0311 25.4354 25.4933 26.9732C23.9556 28.5109 22.1378 29.5554 20.04 30.1065C18.0133 30.6221 15.9867 30.6221 13.96 30.1065C11.8622 29.5554 10.0444 28.5109 8.50667 26.9732C6.96889 25.4354 5.93333 23.6176 5.4 21.5198C4.86667 19.4932 4.86667 17.4665 5.4 15.4398C5.93333 13.3421 6.97333 11.5287 8.52 9.99983L17 1.51983ZM18.3333 15.8132H21.6667L15.6667 24.4798V18.4798H12.3333L18.3333 9.81316V15.8132Z" fill="#1A3C2B"/>
</svg>
