<svg width="18" height="16" viewBox="0 0 18 16" fill="none" xmlns="http://www.w3.org/2000/svg">
    <path d="M8.99501 6.00033C8.63056 6.00033 8.29501 6.08921 7.98834 6.26699C7.68167 6.44477 7.43945 6.68699 7.26167 6.99366C7.08389 7.30033 6.99501 7.63588 6.99501 8.00033C6.99501 8.36477 7.08389 8.70033 7.26167 9.00699C7.43945 9.31366 7.68167 9.55588 7.98834 9.73366C8.29501 9.91144 8.63056 10.0003 8.99501 10.0003C9.35945 10.0003 9.69501 9.91144 10.0017 9.73366C10.3083 9.55588 10.5506 9.31366 10.7283 9.00699C10.9061 8.70033 10.995 8.36477 10.995 8.00033C10.995 7.63588 10.9061 7.30033 10.7283 6.99366C10.5506 6.68699 10.3083 6.44477 10.0017 6.26699C9.69501 6.08921 9.35945 6.00033 8.99501 6.00033ZM8.99501 4.66699C9.59945 4.66699 10.1572 4.81588 10.6683 5.11366C11.1795 5.41144 11.5839 5.81588 11.8817 6.32699C12.1795 6.8381 12.3283 7.39588 12.3283 8.00033C12.3283 8.60477 12.1795 9.16255 11.8817 9.67366C11.5839 10.1848 11.1795 10.5892 10.6683 10.887C10.1572 11.1848 9.59945 11.3337 8.99501 11.3337C8.39056 11.3337 7.83278 11.1848 7.32167 10.887C6.81056 10.5892 6.40612 10.1848 6.10834 9.67366C5.81056 9.16255 5.66167 8.60477 5.66167 8.00033C5.66167 7.39588 5.81056 6.8381 6.10834 6.32699C6.40612 5.81588 6.81056 5.41144 7.32167 5.11366C7.83278 4.81588 8.39056 4.66699 8.99501 4.66699ZM13.3283 4.49366C13.3283 4.72477 13.2461 4.92255 13.0817 5.08699C12.9172 5.25144 12.7217 5.33366 12.495 5.33366C12.2683 5.33366 12.0728 5.25144 11.9083 5.08699C11.7439 4.92255 11.6617 4.72699 11.6617 4.50033C11.6617 4.27366 11.7439 4.0781 11.9083 3.91366C12.0728 3.74921 12.2683 3.66699 12.495 3.66699C12.7217 3.66699 12.9172 3.74921 13.0817 3.91366C13.2461 4.0781 13.3283 4.27144 13.3283 4.49366ZM8.99501 2.66699C8.17723 2.66699 7.62167 2.66921 7.32834 2.67366C7.03501 2.6781 6.69723 2.68921 6.31501 2.70699C5.83501 2.72477 5.43501 2.79588 5.11501 2.92033C4.83945 3.02699 4.59723 3.18477 4.38834 3.39366C4.17945 3.60255 4.02167 3.84477 3.91501 4.12033C3.79056 4.44033 3.71945 4.84033 3.70167 5.32032C3.68389 5.68477 3.67278 6.01144 3.66834 6.30033C3.66389 6.58921 3.66167 7.15588 3.66167 8.00033C3.66167 8.8181 3.66389 9.37366 3.66834 9.66699C3.67278 9.96033 3.68389 10.2981 3.70167 10.6803C3.71945 11.1603 3.79056 11.5603 3.91501 11.8803C4.02167 12.1559 4.17945 12.3981 4.38834 12.607C4.59723 12.8159 4.83945 12.9692 5.11501 13.067C5.43501 13.2003 5.83501 13.2759 6.31501 13.2937C6.67945 13.3114 7.00612 13.3225 7.29501 13.327C7.58389 13.3314 8.15056 13.3337 8.99501 13.3337C9.81278 13.3337 10.3683 13.3314 10.6617 13.327C10.955 13.3225 11.2928 13.3114 11.675 13.2937C12.155 13.2759 12.555 13.2048 12.875 13.0803C13.1506 12.9737 13.3928 12.8159 13.6017 12.607C13.8106 12.3981 13.9639 12.1559 14.0617 11.8803C14.195 11.5603 14.2706 11.1603 14.2883 10.6803C14.3061 10.3159 14.3172 9.98921 14.3217 9.70033C14.3261 9.41144 14.3283 8.84477 14.3283 8.00033C14.3283 7.18255 14.3261 6.62699 14.3217 6.33366C14.3172 6.04033 14.3061 5.70255 14.2883 5.32032C14.2706 4.84033 14.1995 4.44033 14.075 4.12033C13.9683 3.84477 13.8106 3.60255 13.6017 3.39366C13.3928 3.18477 13.1506 3.02699 12.875 2.92033C12.555 2.79588 12.155 2.72477 11.675 2.70699C11.3106 2.68921 10.9839 2.6781 10.695 2.67366C10.4061 2.66921 9.83945 2.66699 8.99501 2.66699ZM8.99501 1.33366C9.86612 1.33366 10.4617 1.3381 10.7817 1.34699C11.0483 1.34699 11.3683 1.35588 11.7417 1.37366C12.3639 1.40032 12.9017 1.50255 13.355 1.68033C13.8083 1.8581 14.2039 2.11588 14.5417 2.45366C14.8794 2.79144 15.1372 3.18699 15.315 3.64033C15.4928 4.09366 15.595 4.63144 15.6217 5.25366C15.6395 5.63588 15.6483 5.95588 15.6483 6.21366C15.6572 6.55144 15.6617 7.15144 15.6617 8.01366C15.6617 8.87588 15.6572 9.46699 15.6483 9.78699C15.6483 10.0537 15.6395 10.3737 15.6217 10.747C15.595 11.3692 15.4928 11.907 15.315 12.3603C15.1372 12.8137 14.8794 13.2092 14.5417 13.547C14.2039 13.8848 13.8083 14.1425 13.355 14.3203C12.9017 14.4981 12.3639 14.6003 11.7417 14.627C11.3595 14.6448 11.0394 14.6537 10.7817 14.6537C10.4439 14.6625 9.84389 14.667 8.98167 14.667C8.11945 14.667 7.52834 14.6625 7.20834 14.6537C6.94167 14.6537 6.62167 14.6448 6.24834 14.627C5.62612 14.6003 5.08834 14.4981 4.63501 14.3203C4.18167 14.1425 3.78612 13.8848 3.44834 13.547C3.11056 13.2092 2.85278 12.8137 2.67501 12.3603C2.49723 11.907 2.39501 11.3692 2.36834 10.747C2.35056 10.3648 2.34167 10.0448 2.34167 9.78699C2.33278 9.44921 2.32834 8.84921 2.32834 7.98699C2.32834 7.12477 2.33278 6.53366 2.34167 6.21366C2.34167 5.94699 2.35056 5.62699 2.36834 5.25366C2.39501 4.63144 2.49723 4.09366 2.67501 3.64033C2.85278 3.18699 3.11056 2.79144 3.44834 2.45366C3.78612 2.11588 4.18167 1.8581 4.63501 1.68033C5.08834 1.50255 5.62612 1.40032 6.24834 1.37366C6.63056 1.35588 6.95056 1.34699 7.20834 1.34699C7.54612 1.3381 8.14167 1.33366 8.99501 1.33366Z" fill="#374151"/>
</svg>
