<svg width="24" height="21" viewBox="0 0 24 21" fill="none" xmlns="http://www.w3.org/2000/svg">
    <path d="M12 16.0127C11.0083 16.596 9.93208 16.8877 8.77125 16.8877C7.61042 16.8877 6.53417 16.596 5.5425 16.0127C4.57417 15.4527 3.81 14.6885 3.25 13.7202C2.66667 12.7285 2.375 11.6552 2.375 10.5002C2.375 9.3452 2.66667 8.27186 3.25 7.2802C3.81 6.31186 4.57417 5.5477 5.5425 4.9877C6.53417 4.40436 7.61042 4.1127 8.77125 4.1127C9.93208 4.1127 11.0083 4.40436 12 4.9877C12.9917 4.40436 14.0679 4.1127 15.2288 4.1127C16.3896 4.1127 17.4658 4.40436 18.4575 4.9877C19.4258 5.5477 20.19 6.31186 20.75 7.2802C21.3333 8.27186 21.625 9.3452 21.625 10.5002C21.625 11.6552 21.3333 12.7285 20.75 13.7202C20.19 14.6885 19.4258 15.4527 18.4575 16.0127C17.4658 16.596 16.3896 16.8877 15.2288 16.8877C14.0679 16.8877 12.9917 16.596 12 16.0127ZM13.4875 14.8052C14.0475 15.0269 14.6308 15.1377 15.2375 15.1377C16.0775 15.1377 16.8533 14.9306 17.565 14.5164C18.2767 14.1023 18.8396 13.5394 19.2537 12.8277C19.6679 12.116 19.875 11.3402 19.875 10.5002C19.875 9.6602 19.6679 8.88436 19.2537 8.1727C18.8396 7.46103 18.2767 6.89811 17.565 6.48394C16.8533 6.06978 16.0775 5.8627 15.2375 5.8627C14.6308 5.8627 14.0475 5.97353 13.4875 6.1952C14.0125 6.77853 14.4208 7.43186 14.7125 8.1552C15.0042 8.90186 15.15 9.68353 15.15 10.5002C15.15 11.3169 15.0042 12.0985 14.7125 12.8452C14.4208 13.5685 14.0125 14.2219 13.4875 14.8052ZM10.5125 6.1952C9.9525 5.97353 9.36917 5.8627 8.7625 5.8627C7.9225 5.8627 7.14667 6.06978 6.435 6.48394C5.72333 6.89811 5.16042 7.46103 4.74625 8.1727C4.33208 8.88436 4.125 9.6602 4.125 10.5002C4.125 11.3402 4.33208 12.116 4.74625 12.8277C5.16042 13.5394 5.72333 14.1023 6.435 14.5164C7.14667 14.9306 7.9225 15.1377 8.7625 15.1377C9.36917 15.1377 9.9525 15.0269 10.5125 14.8052C9.9875 14.2219 9.57917 13.5685 9.2875 12.8452C8.99583 12.0985 8.85 11.3169 8.85 10.5002C8.85 9.68353 8.99583 8.90186 9.2875 8.1552C9.57917 7.43186 9.9875 6.77853 10.5125 6.1952ZM12 7.1752C11.5567 7.60686 11.2125 8.10853 10.9675 8.68019C10.7225 9.25186 10.6 9.85853 10.6 10.5002C10.6 11.1419 10.7225 11.7485 10.9675 12.3202C11.2125 12.8919 11.5567 13.3935 12 13.8252C12.4433 13.3935 12.7875 12.8919 13.0325 12.3202C13.2775 11.7485 13.4 11.1419 13.4 10.5002C13.4 9.85853 13.2775 9.25186 13.0325 8.68019C12.7875 8.10853 12.4433 7.60686 12 7.1752Z" fill="#374151"/>
</svg>
