<svg width="34" height="32" viewBox="0 0 34 32" fill="none" xmlns="http://www.w3.org/2000/svg">
    <path d="M9.66665 2.66683C11.4266 2.66683 13.0533 3.12905 14.5466 4.0535C16.0044 4.94238 17.1333 6.14238 17.9333 7.6535C18.7333 6.53349 19.7378 5.64461 20.9466 4.98683C22.2089 4.32905 23.56 4.00016 25 4.00016H29.6666V7.3335C29.6666 8.89794 29.2755 10.3557 28.4933 11.7068C27.7289 13.0224 26.6889 14.0624 25.3733 14.8268C24.0222 15.6091 22.5644 16.0002 21 16.0002H19V17.3335H25.6666V26.6668C25.6666 27.1468 25.5466 27.5913 25.3066 28.0002C25.0666 28.4091 24.7422 28.7335 24.3333 28.9735C23.9244 29.2135 23.48 29.3335 23 29.3335H12.3333C11.8533 29.3335 11.4089 29.2135 11 28.9735C10.5911 28.7335 10.2666 28.4091 10.0266 28.0002C9.78665 27.5913 9.66665 27.1468 9.66665 26.6668V17.3335H16.3333V14.6668H13.6666C11.9778 14.6668 10.4044 14.2402 8.94665 13.3868C7.5422 12.5691 6.43109 11.4579 5.61331 10.0535C4.75998 8.59572 4.33331 7.02238 4.33331 5.3335V2.66683H9.66665ZM23 20.0002H12.3333V26.6668H23V20.0002ZM27 6.66683H25C23.9155 6.66683 22.9155 6.93794 22 7.48016C21.0844 8.02238 20.3555 8.75127 19.8133 9.66683C19.2711 10.5824 19 11.5824 19 12.6668V13.3335H21C22.0844 13.3335 23.0844 13.0624 24 12.5202C24.9155 11.9779 25.6444 11.2491 26.1866 10.3335C26.7289 9.41794 27 8.41794 27 7.3335V6.66683ZM9.66665 5.3335H6.99998C6.99998 6.54239 7.29776 7.65794 7.89331 8.68016C8.48887 9.70238 9.29776 10.5113 10.32 11.1068C11.3422 11.7024 12.4578 12.0002 13.6666 12.0002H16.3333C16.3333 10.7913 16.0355 9.67572 15.44 8.6535C14.8444 7.63127 14.0355 6.82238 13.0133 6.22683C11.9911 5.63127 10.8755 5.3335 9.66665 5.3335Z" fill="#1A3C2B"/>
</svg>
