<svg width="34" height="32" viewBox="0 0 34 32" fill="none" xmlns="http://www.w3.org/2000/svg">
    <path d="M3 30C3 28.0622 3.48889 26.2667 4.46667 24.6133C5.40889 23.0133 6.68 21.7422 8.28 20.8C9.93333 19.8222 11.7289 19.3333 13.6667 19.3333C15.6044 19.3333 17.4 19.8222 19.0533 20.8C20.6533 21.7422 21.9244 23.0133 22.8667 24.6133C23.8444 26.2667 24.3333 28.0622 24.3333 30H21.6667C21.6667 28.56 21.3022 27.2178 20.5733 25.9733C19.8622 24.7644 18.9022 23.8044 17.6933 23.0933C16.4489 22.3644 15.1067 22 13.6667 22C12.2267 22 10.8844 22.3644 9.64 23.0933C8.43111 23.8044 7.47111 24.7644 6.76 25.9733C6.03111 27.2178 5.66667 28.56 5.66667 30H3ZM13.6667 18C12.2089 18 10.8667 17.6356 9.64 16.9067C8.43111 16.1956 7.47111 15.2356 6.76 14.0267C6.03111 12.8 5.66667 11.4578 5.66667 10C5.66667 8.54222 6.03111 7.2 6.76 5.97333C7.47111 4.76444 8.43111 3.80444 9.64 3.09333C10.8667 2.36444 12.2089 2 13.6667 2C15.1244 2 16.4667 2.36444 17.6933 3.09333C18.9022 3.80444 19.8622 4.76444 20.5733 5.97333C21.3022 7.2 21.6667 8.54222 21.6667 10C21.6667 11.4578 21.3022 12.8 20.5733 14.0267C19.8622 15.2356 18.9022 16.1956 17.6933 16.9067C16.4667 17.6356 15.1244 18 13.6667 18ZM13.6667 15.3333C14.6267 15.3333 15.5156 15.0933 16.3333 14.6133C17.1511 14.1333 17.8 13.4844 18.28 12.6667C18.76 11.8489 19 10.96 19 10C19 9.04 18.76 8.15111 18.28 7.33333C17.8 6.51555 17.1511 5.86667 16.3333 5.38667C15.5156 4.90667 14.6267 4.66667 13.6667 4.66667C12.7067 4.66667 11.8178 4.90667 11 5.38667C10.1822 5.86667 9.53333 6.51555 9.05333 7.33333C8.57333 8.15111 8.33333 9.04 8.33333 10C8.33333 10.96 8.57333 11.8489 9.05333 12.6667C9.53333 13.4844 10.1822 14.1333 11 14.6133C11.8178 15.0933 12.7067 15.3333 13.6667 15.3333ZM24.7067 20.2667C25.9511 20.8178 27.0489 21.5867 28 22.5733C28.9511 23.56 29.6844 24.6756 30.2 25.92C30.7333 27.2178 31 28.5778 31 30H28.3333C28.3333 28.4 27.8978 26.9333 27.0267 25.6C26.1733 24.3022 25.0356 23.3333 23.6133 22.6933L24.7067 20.2667ZM23.8 5.22667C25.1511 5.77778 26.2444 6.66667 27.08 7.89333C27.9156 9.12 28.3333 10.4889 28.3333 12C28.3333 13.2622 28.04 14.4311 27.4533 15.5067C26.8667 16.5822 26.0622 17.4578 25.04 18.1333C24.0178 18.8089 22.8933 19.2 21.6667 19.3067V16.6133C22.4133 16.5067 23.0933 16.2356 23.7067 15.8C24.32 15.3644 24.8 14.8133 25.1467 14.1467C25.4933 13.48 25.6667 12.7644 25.6667 12C25.6667 11.0933 25.4267 10.2667 24.9467 9.52C24.4667 8.77333 23.8356 8.20444 23.0533 7.81333L23.8 5.22667Z" fill="#1A3C2B"/>
</svg>
