<svg width="24" height="21" viewBox="0 0 24 21" fill="none" xmlns="http://www.w3.org/2000/svg">
    <path d="M9.14754 17.7979H10.495L10.9675 14.8404C11.0609 14.2454 11.338 13.7524 11.7988 13.3616C12.2596 12.9708 12.7934 12.7754 13.4 12.7754H13.8375C15.0159 12.7754 15.92 12.5362 16.55 12.0579C17.18 11.5795 17.6 10.792 17.81 9.69535C17.985 8.82035 17.9384 8.20785 17.67 7.85785C17.1684 9.14118 16.3692 10.0862 15.2725 10.6929C14.2809 11.2295 13.05 11.4979 11.58 11.4979H10.7925C10.6175 11.4979 10.4571 11.5445 10.3113 11.6379C10.1655 11.7312 10.0809 11.8537 10.0575 12.0054L9.14754 17.7979ZM4.82504 17.5354C4.67337 17.5354 4.54795 17.4799 4.44879 17.3691C4.34962 17.2583 4.3117 17.127 4.33504 16.9754L6.68004 2.13535C6.71504 1.93702 6.80837 1.77369 6.96004 1.64535C7.1117 1.51702 7.2867 1.45285 7.48504 1.45285H13.1025C15.1559 1.45285 16.585 1.90785 17.39 2.81785C17.7634 3.24952 18.0113 3.7191 18.1338 4.2266C18.2563 4.7341 18.2592 5.34369 18.1425 6.05535C18.4692 6.23035 18.7375 6.43452 18.9475 6.66785C19.6242 7.43785 19.8225 8.56368 19.5425 10.0454C19.2275 11.6204 18.545 12.7812 17.495 13.5279C16.5734 14.1929 15.3542 14.5254 13.8375 14.5254H13.4C13.225 14.5254 13.0705 14.5808 12.9363 14.6916C12.8021 14.8024 12.7234 14.9454 12.7 15.1204L12.0875 18.9529C12.0642 19.1162 11.9855 19.2562 11.8513 19.3729C11.7171 19.4895 11.5625 19.5479 11.3875 19.5479H7.59004C7.4617 19.5479 7.3567 19.4983 7.27504 19.3991C7.19337 19.2999 7.15837 19.1862 7.17004 19.0579L7.41504 17.5354H4.82504ZM10.7925 9.74785H11.58C12.9917 9.74785 14.0796 9.4591 14.8438 8.8816C15.608 8.3041 16.1184 7.36202 16.375 6.05535L16.4275 5.77535C16.4975 5.32035 16.5063 4.96452 16.4538 4.70785C16.4013 4.45119 16.273 4.20618 16.0688 3.97285C15.8646 3.73952 15.5175 3.55285 15.0275 3.41285C14.5025 3.27285 13.8609 3.20285 13.1025 3.20285H8.29004L6.29504 15.7854H7.67754L8.30754 11.7429C8.44754 11.1595 8.74795 10.6812 9.20879 10.3079C9.66962 9.93452 10.1975 9.74785 10.7925 9.74785Z" fill="#374151"/>
</svg>
