<svg width="23" height="21" viewBox="0 0 23 21" fill="none" xmlns="http://www.w3.org/2000/svg">
    <path d="M4.25 19.6875C4.25 18.4158 4.57083 17.2375 5.2125 16.1525C5.83083 15.1025 6.665 14.2683 7.715 13.65C8.8 13.0083 9.97833 12.6875 11.25 12.6875C12.5217 12.6875 13.7 13.0083 14.785 13.65C15.835 14.2683 16.6692 15.1025 17.2875 16.1525C17.9292 17.2375 18.25 18.4158 18.25 19.6875H16.5C16.5 18.7425 16.2608 17.8617 15.7825 17.045C15.3158 16.2517 14.6858 15.6217 13.8925 15.155C13.0758 14.6767 12.195 14.4375 11.25 14.4375C10.305 14.4375 9.42417 14.6767 8.6075 15.155C7.81417 15.6217 7.18417 16.2517 6.7175 17.045C6.23917 17.8617 6 18.7425 6 19.6875H4.25ZM11.25 11.8125C10.2933 11.8125 9.4125 11.5733 8.6075 11.095C7.81417 10.6283 7.18417 9.99833 6.7175 9.205C6.23917 8.4 6 7.51917 6 6.5625C6 5.60583 6.23917 4.725 6.7175 3.92C7.18417 3.12667 7.81417 2.49667 8.6075 2.03C9.4125 1.55167 10.2933 1.3125 11.25 1.3125C12.2067 1.3125 13.0875 1.55167 13.8925 2.03C14.6858 2.49667 15.3158 3.12667 15.7825 3.92C16.2608 4.725 16.5 5.60583 16.5 6.5625C16.5 7.51917 16.2608 8.4 15.7825 9.205C15.3158 9.99833 14.6858 10.6283 13.8925 11.095C13.0875 11.5733 12.2067 11.8125 11.25 11.8125ZM11.25 10.0625C11.88 10.0625 12.4633 9.905 13 9.59C13.5367 9.275 13.9625 8.84917 14.2775 8.3125C14.5925 7.77583 14.75 7.1925 14.75 6.5625C14.75 5.9325 14.5925 5.34917 14.2775 4.8125C13.9625 4.27583 13.5367 3.85 13 3.535C12.4633 3.22 11.88 3.0625 11.25 3.0625C10.62 3.0625 10.0367 3.22 9.5 3.535C8.96333 3.85 8.5375 4.27583 8.2225 4.8125C7.9075 5.34917 7.75 5.9325 7.75 6.5625C7.75 7.1925 7.9075 7.77583 8.2225 8.3125C8.5375 8.84917 8.96333 9.275 9.5 9.59C10.0367 9.905 10.62 10.0625 11.25 10.0625Z" fill="#374151"/>
</svg>
