<svg width="17" height="16" viewBox="0 0 17 16" fill="none" xmlns="http://www.w3.org/2000/svg">
    <path d="M3.97841 11.4933H13.3117V6.85334C13.3117 6.00889 13.0984 5.22223 12.6717 4.49334C12.2629 3.78223 11.7073 3.21778 11.0051 2.80001C10.2762 2.38223 9.48953 2.17334 8.64508 2.17334C7.80064 2.17334 7.01397 2.38223 6.28508 2.80001C5.58286 3.21778 5.0273 3.78223 4.61841 4.49334C4.19175 5.22223 3.97841 6.00889 3.97841 6.85334V11.4933ZM8.64508 0.826673C9.72953 0.826673 10.7384 1.10223 11.6717 1.65334C12.5784 2.18667 13.2984 2.90667 13.8317 3.81334C14.374 4.74667 14.6451 5.76001 14.6451 6.85334V12.8267H2.64508V6.85334C2.64508 5.76001 2.91619 4.74667 3.45841 3.81334C3.99175 2.90667 4.71175 2.18667 5.61841 1.65334C6.55175 1.11112 7.56064 0.840006 8.64508 0.840006V0.826673ZM6.97841 13.4933H10.3117C10.3117 13.7956 10.2362 14.0756 10.0851 14.3333C9.93397 14.5911 9.73175 14.7956 9.47841 14.9467C9.22508 15.0978 8.9473 15.1733 8.64508 15.1733C8.34286 15.1733 8.06508 15.0978 7.81175 14.9467C7.55841 14.7956 7.35619 14.5911 7.20508 14.3333C7.05397 14.0756 6.97841 13.8 6.97841 13.5067V13.4933Z" fill="#6B7280"/>
</svg>
