<svg width="23" height="21" viewBox="0 0 23 21" fill="none" xmlns="http://www.w3.org/2000/svg">
    <path d="M16.395 14.4025L20.14 18.1475L18.8975 19.39L15.1525 15.645C14.4642 16.1933 13.7117 16.6133 12.895 16.905C12.0317 17.2083 11.145 17.36 10.235 17.36C8.81165 17.36 7.48749 17.0042 6.26249 16.2925C5.07249 15.5925 4.13332 14.6475 3.44499 13.4575C2.72165 12.2325 2.35999 10.9083 2.35999 9.485C2.35999 8.06167 2.72165 6.7375 3.44499 5.5125C4.13332 4.3225 5.07249 3.38333 6.26249 2.695C7.48749 1.97167 8.81165 1.61 10.235 1.61C11.6583 1.61 12.9825 1.97167 14.2075 2.695C15.3975 3.38333 16.3425 4.3225 17.0425 5.5125C17.7542 6.7375 18.11 8.06167 18.11 9.485C18.11 10.395 17.9583 11.2817 17.655 12.145C17.3633 12.9617 16.9433 13.7142 16.395 14.4025ZM14.6275 13.755C15.1758 13.195 15.6017 12.5533 15.905 11.83C16.2083 11.0833 16.36 10.3017 16.36 9.485C16.36 8.37667 16.08 7.34417 15.52 6.3875C14.9833 5.46583 14.2542 4.73667 13.3325 4.2C12.3758 3.64 11.3433 3.36 10.235 3.36C9.12665 3.36 8.09415 3.64 7.13749 4.2C6.21582 4.73667 5.48665 5.46583 4.94999 6.3875C4.38999 7.34417 4.10999 8.37667 4.10999 9.485C4.10999 10.5933 4.38999 11.6258 4.94999 12.5825C5.48665 13.5042 6.21582 14.2333 7.13749 14.77C8.09415 15.33 9.12665 15.61 10.235 15.61C11.0517 15.61 11.8333 15.4583 12.58 15.155C13.3033 14.8517 13.945 14.4258 14.505 13.8775L14.6275 13.755Z" fill="#374151"/>
</svg>
