<svg width="24" height="21" viewBox="0 0 24 21" fill="none" xmlns="http://www.w3.org/2000/svg">
    <path d="M20.9425 13.7895L20.75 12.8095H18.545L18.195 13.7895H16.4275L18.965 7.73453C19.105 7.3962 19.3617 7.22703 19.735 7.22703H21.135L22.5 13.7895H20.9425ZM19.035 11.462H20.4525L19.9275 8.99453L19.035 11.462ZM7.6775 7.22703H9.445L6.715 13.7895H4.9125C4.30583 11.4445 3.8625 9.71203 3.5825 8.59203C3.48917 8.2187 3.29083 7.98245 2.9875 7.88328C2.68417 7.78411 2.18833 7.6237 1.5 7.40203V7.22703H4.335C4.825 7.22703 5.11083 7.4662 5.1925 7.94453L5.8925 11.672L7.6775 7.22703ZM11.895 7.22703L10.4775 13.7895H8.7975L10.1975 7.22703H11.895ZM15.3075 7.10453C15.5408 7.10453 15.8092 7.13953 16.1125 7.20953C16.3808 7.2562 16.6142 7.32036 16.8125 7.40203L16.515 8.76703C16.0017 8.55703 15.5583 8.45786 15.185 8.46953C14.87 8.46953 14.6133 8.52495 14.415 8.63578C14.2167 8.74661 14.1175 8.87203 14.1175 9.01203C14.1175 9.15203 14.1933 9.29203 14.345 9.43203C14.45 9.5137 14.6483 9.6362 14.94 9.79953C15.2083 9.93953 15.4125 10.0562 15.5525 10.1495C15.9375 10.3945 16.2 10.657 16.34 10.937C16.4567 11.147 16.5092 11.4037 16.4975 11.707C16.4975 12.092 16.3925 12.4479 16.1825 12.7745C15.9492 13.1129 15.6283 13.3812 15.22 13.5795C14.765 13.7895 14.2283 13.8945 13.61 13.8945C13.1783 13.8829 12.8342 13.8537 12.5775 13.807C12.3442 13.772 12.0408 13.6845 11.6675 13.5445L11.965 12.127C12.3617 12.2904 12.6592 12.3954 12.8575 12.442C13.0908 12.5004 13.3592 12.5295 13.6625 12.5295C13.9658 12.5295 14.2196 12.4712 14.4237 12.3545C14.6279 12.2379 14.7358 12.0862 14.7475 11.8995C14.7475 11.7479 14.6921 11.6224 14.5813 11.5233C14.4704 11.4241 14.2458 11.2812 13.9075 11.0945C13.4292 10.8262 13.085 10.5987 12.875 10.412C12.525 10.0737 12.3529 9.6887 12.3588 9.25703C12.3646 8.82536 12.4929 8.44911 12.7437 8.12828C12.9946 7.80745 13.3417 7.55661 13.785 7.37578C14.2283 7.19495 14.7358 7.10453 15.3075 7.10453Z" fill="#374151"/>
</svg>
