<svg width="18" height="16" viewBox="0 0 18 16" fill="none" xmlns="http://www.w3.org/2000/svg">
    <path d="M14.0617 4.66634C14.035 4.56856 13.9906 4.48412 13.9283 4.41301C13.8661 4.3419 13.7906 4.29301 13.7017 4.26634C13.4883 4.20412 13.0439 4.15079 12.3683 4.10634C11.435 4.03523 10.3106 3.99967 8.99501 3.99967C7.67945 3.99967 6.55501 4.03523 5.62167 4.10634C4.94612 4.15079 4.50167 4.20412 4.28834 4.26634C4.19945 4.29301 4.12389 4.3419 4.06167 4.41301C3.99945 4.48412 3.95501 4.56856 3.92834 4.66634C3.86612 4.87967 3.81278 5.23523 3.76834 5.73301C3.69723 6.42634 3.66167 7.1819 3.66167 7.99967C3.66167 8.81745 3.69723 9.57301 3.76834 10.2663C3.81278 10.7641 3.86612 11.1197 3.92834 11.333C3.95501 11.4308 3.99945 11.5152 4.06167 11.5863C4.12389 11.6575 4.19945 11.7063 4.28834 11.733C4.50167 11.7952 4.94612 11.8486 5.62167 11.893C6.55501 11.9641 7.67945 11.9997 8.99501 11.9997C10.3106 11.9997 11.435 11.9641 12.3683 11.893C13.0439 11.8486 13.4883 11.7952 13.7017 11.733C13.7906 11.7063 13.8661 11.6575 13.9283 11.5863C13.9906 11.5152 14.035 11.4308 14.0617 11.333C14.1239 11.1197 14.1772 10.7641 14.2217 10.2663C14.2928 9.57301 14.3283 8.81745 14.3283 7.99967C14.3283 7.1819 14.2928 6.42634 14.2217 5.73301C14.1772 5.23523 14.1239 4.87967 14.0617 4.66634ZM15.355 4.33301C15.4795 4.83079 15.5683 5.59079 15.6217 6.61301C15.6483 7.11967 15.6617 7.5819 15.6617 7.99967L15.6483 8.69301C15.6306 9.23523 15.6039 9.73301 15.5683 10.1863C15.515 10.8175 15.4439 11.3108 15.355 11.6663C15.275 11.9952 15.1194 12.2797 14.8883 12.5197C14.6572 12.7597 14.3817 12.9241 14.0617 13.013C13.5906 13.1463 12.6039 13.2397 11.1017 13.293C10.355 13.3197 9.65278 13.333 8.99501 13.333L7.92834 13.3197C7.10167 13.3019 6.37278 13.2752 5.74167 13.2397C4.87056 13.1863 4.26612 13.1108 3.92834 13.013C3.60834 12.9241 3.33278 12.7597 3.10167 12.5197C2.87056 12.2797 2.71501 11.9952 2.63501 11.6663C2.54612 11.3108 2.47501 10.8175 2.42167 10.1863C2.38612 9.73301 2.35945 9.23523 2.34167 8.69301L2.32834 7.99967L2.34167 7.30634C2.35945 6.76412 2.38612 6.26634 2.42167 5.81301C2.47501 5.1819 2.54612 4.68856 2.63501 4.33301C2.71501 4.00412 2.87056 3.71967 3.10167 3.47967C3.33278 3.23967 3.60834 3.07523 3.92834 2.98634C4.26612 2.88856 4.87056 2.81301 5.74167 2.75967C6.37278 2.72412 7.10167 2.69745 7.92834 2.67967L8.99501 2.66634L10.0617 2.67967C10.8883 2.69745 11.6172 2.72412 12.2483 2.75967C13.1194 2.81301 13.7239 2.88856 14.0617 2.98634C14.3817 3.07523 14.6572 3.23967 14.8883 3.47967C15.1194 3.71967 15.275 4.00412 15.355 4.33301ZM7.66167 10.333V5.66634L11.6617 7.99967L7.66167 10.333Z" fill="#374151"/>
</svg>
